<mxfile host="Electron" agent="Mozilla/5.0 (Windows NT 10.0; Win64; x64) AppleWebKit/537.36 (KHTML, like Gecko) draw.io/27.0.5 Chrome/134.0.6998.205 Electron/35.3.0 Safari/537.36" version="27.0.5">
  <diagram name="第 1 页" id="laByC1TRH1SH5Lywnlbb">
    <mxGraphModel dx="1426" dy="849" grid="1" gridSize="10" guides="1" tooltips="1" connect="1" arrows="1" fold="1" page="1" pageScale="1" pageWidth="827" pageHeight="1169" math="0" shadow="0">
      <root>
        <mxCell id="0" />
        <mxCell id="1" parent="0" />
        <mxCell id="v67IcQN9z_8q3aTp4z4S-17" style="edgeStyle=orthogonalEdgeStyle;rounded=0;orthogonalLoop=1;jettySize=auto;html=1;" edge="1" parent="1" source="v67IcQN9z_8q3aTp4z4S-1" target="v67IcQN9z_8q3aTp4z4S-2">
          <mxGeometry relative="1" as="geometry" />
        </mxCell>
        <mxCell id="v67IcQN9z_8q3aTp4z4S-18" style="edgeStyle=orthogonalEdgeStyle;rounded=0;orthogonalLoop=1;jettySize=auto;html=1;entryX=0.5;entryY=0;entryDx=0;entryDy=0;" edge="1" parent="1" source="v67IcQN9z_8q3aTp4z4S-1" target="v67IcQN9z_8q3aTp4z4S-3">
          <mxGeometry relative="1" as="geometry" />
        </mxCell>
        <mxCell id="v67IcQN9z_8q3aTp4z4S-19" value="" style="edgeStyle=orthogonalEdgeStyle;rounded=0;orthogonalLoop=1;jettySize=auto;html=1;" edge="1" parent="1" source="v67IcQN9z_8q3aTp4z4S-1" target="v67IcQN9z_8q3aTp4z4S-8">
          <mxGeometry relative="1" as="geometry" />
        </mxCell>
        <mxCell id="v67IcQN9z_8q3aTp4z4S-1" value="auth-sms-service" style="whiteSpace=wrap;html=1;" vertex="1" parent="1">
          <mxGeometry x="280" y="420" width="120" height="60" as="geometry" />
        </mxCell>
        <mxCell id="v67IcQN9z_8q3aTp4z4S-2" value="发送短信" style="rounded=1;whiteSpace=wrap;html=1;" vertex="1" parent="1">
          <mxGeometry x="230" y="520" width="80" height="40" as="geometry" />
        </mxCell>
        <mxCell id="v67IcQN9z_8q3aTp4z4S-3" value="验证短信" style="rounded=1;whiteSpace=wrap;html=1;" vertex="1" parent="1">
          <mxGeometry x="374" y="520" width="80" height="40" as="geometry" />
        </mxCell>
        <mxCell id="v67IcQN9z_8q3aTp4z4S-16" value="" style="edgeStyle=orthogonalEdgeStyle;rounded=0;orthogonalLoop=1;jettySize=auto;html=1;" edge="1" parent="1" source="v67IcQN9z_8q3aTp4z4S-4" target="v67IcQN9z_8q3aTp4z4S-1">
          <mxGeometry relative="1" as="geometry" />
        </mxCell>
        <mxCell id="v67IcQN9z_8q3aTp4z4S-4" value="ip限流拦截" style="rounded=1;whiteSpace=wrap;html=1;" vertex="1" parent="1">
          <mxGeometry x="300" y="330" width="80" height="40" as="geometry" />
        </mxCell>
        <mxCell id="v67IcQN9z_8q3aTp4z4S-15" value="" style="edgeStyle=orthogonalEdgeStyle;rounded=0;orthogonalLoop=1;jettySize=auto;html=1;" edge="1" parent="1" source="v67IcQN9z_8q3aTp4z4S-6" target="v67IcQN9z_8q3aTp4z4S-4">
          <mxGeometry relative="1" as="geometry" />
        </mxCell>
        <mxCell id="v67IcQN9z_8q3aTp4z4S-28" style="edgeStyle=orthogonalEdgeStyle;rounded=0;orthogonalLoop=1;jettySize=auto;html=1;" edge="1" parent="1" source="v67IcQN9z_8q3aTp4z4S-6" target="v67IcQN9z_8q3aTp4z4S-9">
          <mxGeometry relative="1" as="geometry" />
        </mxCell>
        <mxCell id="v67IcQN9z_8q3aTp4z4S-6" value="gateway" style="whiteSpace=wrap;html=1;" vertex="1" parent="1">
          <mxGeometry x="280" y="220" width="120" height="60" as="geometry" />
        </mxCell>
        <mxCell id="v67IcQN9z_8q3aTp4z4S-20" value="" style="edgeStyle=orthogonalEdgeStyle;rounded=0;orthogonalLoop=1;jettySize=auto;html=1;" edge="1" parent="1" source="v67IcQN9z_8q3aTp4z4S-8" target="v67IcQN9z_8q3aTp4z4S-11">
          <mxGeometry relative="1" as="geometry" />
        </mxCell>
        <mxCell id="v67IcQN9z_8q3aTp4z4S-8" value="生成Jwt无状态验证token" style="rounded=1;whiteSpace=wrap;html=1;" vertex="1" parent="1">
          <mxGeometry x="130" y="420" width="100" height="60" as="geometry" />
        </mxCell>
        <mxCell id="v67IcQN9z_8q3aTp4z4S-9" value="其他service" style="whiteSpace=wrap;html=1;" vertex="1" parent="1">
          <mxGeometry x="414" y="290" width="120" height="60" as="geometry" />
        </mxCell>
        <mxCell id="v67IcQN9z_8q3aTp4z4S-11" value="accessToken&lt;br&gt;refreshToken" style="text;html=1;align=center;verticalAlign=middle;resizable=0;points=[];autosize=1;strokeColor=none;fillColor=none;" vertex="1" parent="1">
          <mxGeometry x="135" y="310" width="90" height="40" as="geometry" />
        </mxCell>
        <mxCell id="v67IcQN9z_8q3aTp4z4S-14" value="" style="edgeStyle=orthogonalEdgeStyle;rounded=0;orthogonalLoop=1;jettySize=auto;html=1;" edge="1" parent="1" source="v67IcQN9z_8q3aTp4z4S-23" target="v67IcQN9z_8q3aTp4z4S-6">
          <mxGeometry relative="1" as="geometry">
            <Array as="points">
              <mxPoint x="310" y="200" />
              <mxPoint x="310" y="200" />
            </Array>
          </mxGeometry>
        </mxCell>
        <mxCell id="v67IcQN9z_8q3aTp4z4S-26" style="edgeStyle=orthogonalEdgeStyle;rounded=0;orthogonalLoop=1;jettySize=auto;html=1;" edge="1" parent="1" source="v67IcQN9z_8q3aTp4z4S-22" target="v67IcQN9z_8q3aTp4z4S-6">
          <mxGeometry relative="1" as="geometry">
            <Array as="points">
              <mxPoint x="380" y="200" />
              <mxPoint x="380" y="200" />
            </Array>
          </mxGeometry>
        </mxCell>
        <mxCell id="v67IcQN9z_8q3aTp4z4S-13" value="前端" style="ellipse;whiteSpace=wrap;html=1;" vertex="1" parent="1">
          <mxGeometry x="300" y="70" width="80" height="80" as="geometry" />
        </mxCell>
        <mxCell id="v67IcQN9z_8q3aTp4z4S-21" style="edgeStyle=orthogonalEdgeStyle;rounded=0;orthogonalLoop=1;jettySize=auto;html=1;entryX=-0.012;entryY=0.613;entryDx=0;entryDy=0;entryPerimeter=0;" edge="1" parent="1" source="v67IcQN9z_8q3aTp4z4S-11" target="v67IcQN9z_8q3aTp4z4S-13">
          <mxGeometry relative="1" as="geometry">
            <Array as="points">
              <mxPoint x="180" y="119" />
            </Array>
          </mxGeometry>
        </mxCell>
        <mxCell id="v67IcQN9z_8q3aTp4z4S-24" value="" style="edgeStyle=orthogonalEdgeStyle;rounded=0;orthogonalLoop=1;jettySize=auto;html=1;" edge="1" parent="1" source="v67IcQN9z_8q3aTp4z4S-13" target="v67IcQN9z_8q3aTp4z4S-23">
          <mxGeometry relative="1" as="geometry">
            <mxPoint x="310" y="136" as="sourcePoint" />
            <mxPoint x="310" y="220" as="targetPoint" />
            <Array as="points" />
          </mxGeometry>
        </mxCell>
        <mxCell id="v67IcQN9z_8q3aTp4z4S-23" value="ip" style="text;html=1;align=center;verticalAlign=middle;resizable=0;points=[];autosize=1;strokeColor=none;fillColor=none;" vertex="1" parent="1">
          <mxGeometry x="290" y="170" width="30" height="30" as="geometry" />
        </mxCell>
        <mxCell id="v67IcQN9z_8q3aTp4z4S-27" value="" style="edgeStyle=orthogonalEdgeStyle;rounded=0;orthogonalLoop=1;jettySize=auto;html=1;" edge="1" parent="1" source="v67IcQN9z_8q3aTp4z4S-13" target="v67IcQN9z_8q3aTp4z4S-22">
          <mxGeometry relative="1" as="geometry">
            <mxPoint x="380" y="110" as="sourcePoint" />
            <mxPoint x="380" y="220" as="targetPoint" />
            <Array as="points" />
          </mxGeometry>
        </mxCell>
        <mxCell id="v67IcQN9z_8q3aTp4z4S-22" value="accessToken&lt;br&gt;refreshToken" style="text;html=1;align=center;verticalAlign=middle;resizable=0;points=[];autosize=1;strokeColor=none;fillColor=none;" vertex="1" parent="1">
          <mxGeometry x="420" y="165" width="90" height="40" as="geometry" />
        </mxCell>
      </root>
    </mxGraphModel>
  </diagram>
</mxfile>
